<svg width="3095" height="990" viewBox="0 0 3095 990" fill="none" xmlns="http://www.w3.org/2000/svg">
<path d="M1990.14 495.395C1990.14 553.097 1978.19 605.427 1954.28 652.384C1930.37 698.943 1896.51 735.952 1852.68 763.41C1809.24 790.47 1757.64 804 1697.87 804C1638.5 804 1587.1 790.47 1543.67 763.41C1500.24 736.35 1466.77 699.54 1443.26 652.981C1419.75 606.421 1408 553.893 1408 495.395C1408 437.296 1419.75 384.767 1443.26 337.81C1467.17 290.853 1501.04 253.645 1544.87 226.187C1589.1 198.729 1641.29 185 1701.46 185C1762.42 185 1814.42 198.928 1857.46 226.784C1900.49 254.64 1933.36 292.047 1956.07 339.004C1978.79 385.961 1990.14 438.092 1990.14 495.395ZM1862.84 494.202C1862.84 449.632 1856.86 408.047 1844.91 369.446C1833.35 330.846 1815.42 299.608 1791.11 275.731C1767.21 251.854 1736.92 239.916 1700.27 239.916C1662.41 239.916 1631.33 251.854 1607.03 275.731C1583.12 299.608 1565.39 330.846 1553.83 369.446C1542.28 408.047 1536.5 449.632 1536.5 494.202C1536.5 538.373 1542.28 579.958 1553.83 618.957C1565.79 657.557 1583.72 688.796 1607.62 712.672C1631.93 736.549 1662.41 748.487 1699.07 748.487C1736.53 748.487 1767.21 736.549 1791.11 712.672C1815.42 688.796 1833.35 657.557 1844.91 618.957C1856.86 580.356 1862.84 538.771 1862.84 494.202Z" fill="#FAFAF7"/>
<path d="M2606.52 789.077H2336.37V741.324L2387.77 737.743C2394.94 736.947 2400.92 734.161 2405.7 729.386C2410.88 724.61 2413.47 718.442 2413.47 710.881V392.726C2413.47 354.126 2404.51 324.877 2386.57 304.98C2368.64 284.685 2338.36 274.537 2295.73 274.537C2272.62 274.537 2249.51 277.92 2226.4 284.685C2203.68 291.052 2181.97 299.409 2161.25 309.755V710.881C2161.25 727.595 2169.81 736.549 2186.95 737.743L2238.35 741.324V789.077H1961.62V741.324L2021.39 737.743C2038.52 736.549 2047.09 727.595 2047.09 710.881V286.475H1961.62V246.482L2111.04 199.923H2161.25V260.808C2195.51 241.309 2230.58 223.799 2266.44 208.28C2302.7 192.76 2334.97 185 2363.27 185C2416.66 185 2457.3 201.714 2485.19 235.141C2513.08 268.17 2527.03 314.331 2527.03 373.625V710.881C2527.03 718.442 2529.42 724.61 2534.2 729.386C2539.38 734.161 2545.56 736.947 2552.73 737.743L2606.52 741.324V789.077Z" fill="#FAFAF7"/>
<path d="M3095 728.192C3060.73 749.283 3023.67 767.19 2983.83 781.914C2944.38 796.638 2903.94 804 2862.5 804C2813.09 804 2766.67 793.057 2723.24 771.17C2680.21 748.885 2645.34 715.259 2618.64 670.291C2591.95 625.324 2578.6 568.816 2578.6 500.768C2578.6 437.097 2590.95 381.584 2615.66 334.229C2640.36 286.873 2674.43 250.263 2717.86 224.396C2761.29 198.132 2810.7 185 2866.08 185C2942.19 185 2999.37 208.678 3037.62 256.033C3075.87 302.99 3095 362.88 3095 435.704C3095 439.683 3095 445.056 3095 451.821C3095 458.188 3094.6 464.157 3093.8 469.728H2696.94C2696.94 500.768 2700.13 531.807 2706.5 562.847C2713.28 593.488 2724.43 621.344 2739.97 646.415C2755.51 671.485 2776.43 691.581 2802.73 706.703C2829.03 721.825 2861.9 729.386 2901.35 729.386C2936.41 729.386 2970.48 721.427 3003.55 705.509C3037.02 689.193 3067.5 671.883 3095 653.578V728.192ZM2972.47 414.812V387.951C2972.47 347.759 2962.71 313.933 2943.19 286.475C2924.06 259.017 2894.18 245.288 2853.53 245.288C2813.29 245.288 2779.02 260.41 2750.73 290.654C2722.44 320.897 2706.7 362.284 2703.51 414.812H2972.47Z" fill="#FAFAF7"/>
<path d="M537.492 782.175C641.009 827.7 767.92 858.83 880.499 839.875C983.153 822.599 1069.64 764.946 1094.39 659.271C1114.47 573.493 1088.53 481.273 1047.26 405.311C983.122 287.246 874.766 183.791 759.845 114.657C644.924 45.5225 507.179 -5.02605 372.1 0.398669C289.696 3.69665 205.936 26.536 146.542 85.6685C112.067 119.989 88.3798 171.231 83.1246 219.823C78.1622 265.64 84.373 310.317 99.8458 354.007C168.241 547.14 354.007 701.467 537.508 782.191L537.492 782.175ZM751.954 818.053C583.048 796.2 415.698 707.108 292.47 593.004C222.534 528.246 159.364 444.979 125.983 355.471C102.959 293.734 96.3936 223.367 122.408 161.969C137.156 127.14 160.365 98.244 190.741 75.9133C275.579 13.5752 395.817 6.99464 495.975 26.8596C608.846 49.252 713.873 99.4615 806.71 166.515C907.083 239.025 999.535 339.922 1048.42 454.627C1072.45 511.001 1083.99 570.103 1075.64 630.869C1067.37 690.957 1034.56 742.353 983.985 775.379C917.624 818.715 830.86 828.255 751.97 818.053H751.954Z" fill="#FAFAF7"/>
<path d="M1103.26 661.228C1086.68 755.313 1024.9 818.622 934.019 848.69C821.749 885.846 685.144 860.263 576.249 818.915C452.513 771.942 340.335 699.91 245.155 607.813C209 572.83 177.253 534.456 148.835 493.031C100.382 422.402 61.7005 335.19 65.8306 248.071C68.2194 197.769 83.985 159.241 111.402 116.938C45.8269 171.308 31.4021 262.511 47.1523 342.002C53.4709 373.841 62.9796 403.23 76.526 432.958C100.336 485.202 130.912 532.992 167.745 577.238C255.45 682.573 367.828 765.13 491.071 824.124C614.315 883.118 769.305 920.691 900.469 889.128C985.786 868.601 1061.47 816.095 1090.83 730.856C1098.18 708.71 1104.61 686.564 1103.25 661.244L1103.26 661.228Z" fill="#FAFAF7"/>
<path d="M883.295 963.502C923.148 947.074 960.875 926.022 988.307 893.967C954.263 917.839 920.929 934.807 882.401 944.993C751.745 979.53 595.121 942.589 474.729 886.57C422.1 862.082 372.615 834.018 325.179 800.591C205.126 715.984 89.4805 597.996 36.7743 458.756C20.2073 414.973 11.7774 370.404 11.5308 323.739C11.4229 302.641 15.4607 283.747 19.0207 263.004C-2.52414 310.486 -3.6646 380.915 5.21223 431.617C32.0585 584.881 147.149 721.146 266.986 813.983C343.441 873.224 436.402 924.913 528.422 954.672C620.442 984.431 713.849 999.426 808.489 983.598C834.457 979.252 858.36 973.781 883.295 963.502Z" fill="#FAFAF7"/>
<path d="M1045.09 830.737C1053.55 816.158 1061.75 802.95 1066.99 787.061C1043.75 824.541 1013.29 854.408 974.288 874.982C947.75 888.991 920.226 899.27 890.575 905.219C864.576 910.428 839.671 914.481 812.779 914.851C739.715 915.852 668.715 903.092 599.457 880.854C418.684 822.8 238.42 697.6 127.983 543.165C94.8799 496.87 68.8659 447.847 50.7115 394.031C28.1958 324.45 25.7762 258.69 53.4085 189.078C36.1326 211.825 26.9937 237.793 20.4131 264.916C18.3634 282.732 14.711 299.345 15.0809 317.561C15.9593 360.774 23.5416 402.692 38.4751 443.562C73.1502 538.464 134.934 621.869 207.366 691.913C307.338 788.587 426.76 862.268 558.125 907.993C689.489 953.718 871.973 973.768 992.612 885.446C1013.28 870.312 1029.38 851.773 1045.07 830.752L1045.09 830.737Z" fill="#FAFAF7"/>
<path d="M552.55 745.664C671.077 797.831 835.823 835.526 954.766 769.12C999.135 744.354 1031.99 705.626 1047.99 657.312C1086.75 540.264 1020.28 405.817 947.122 315.631C855.534 202.745 729.686 114.516 592.758 66.0323C506.347 35.4412 418.966 22.0797 328.209 37.46C262.311 48.6177 195.288 81.7054 157.561 138.234C118.91 196.133 115.889 270.785 136.756 335.882C176.517 459.926 276.767 570.763 381.008 646.277C434.993 685.391 491.66 718.864 552.565 745.664H552.55ZM210.16 422.955C199.896 402.381 189.139 382.701 184.731 360.385C182.265 347.918 184.623 333.477 184.562 320.64C184.438 293.223 194.07 269.059 209.99 247.93C219.607 235.17 229.454 224.844 243.016 215.906C341.216 151.179 476.049 175.991 576.761 223.904C661.969 264.435 737.392 321.534 796.108 395.862C836.917 447.52 871.191 513.634 880.5 579.501C888.236 634.272 873.241 695.485 826.761 729.189C807.851 742.905 785.043 751.721 761.726 755.974C721.919 763.217 688.8 758.008 649.563 748.916C594.268 736.094 542.486 715.212 492.277 688.889C441.975 662.521 396.743 631.483 353.006 595.436C314.37 563.597 280.25 537.845 248.457 498.007L248.272 497.837L221.502 461.945L211.377 445.84C194.101 418.408 177.396 391.346 165.236 361.202C151.289 326.604 142.674 291.852 143.676 254.279C146.188 160.564 203.764 96.7467 290.236 67.82C434.392 19.5985 611.559 79.4246 735.296 157.636C825.097 214.411 904.433 286.581 963.319 375.134C989.765 414.894 1010.42 456.998 1023.78 502.646C1049.84 591.66 1036.78 685.884 957.402 742.659C890.255 790.68 785.598 793.146 707.294 776.486C680.401 769.736 654.063 766.007 629.22 754.818C732.106 783.93 882.395 797.723 963.936 715.35C990.597 688.412 1007.55 656.218 1013.74 618.537C1020.86 575.232 1016.12 531.634 1002.62 489.931C985.496 437.071 956.338 384.026 922.403 340.289C876.909 281.665 823.186 230.531 762.466 187.981C681.11 130.975 588.782 88.887 490.797 71.0872C425.593 59.2514 349.461 60.4072 287.555 85.0959C256.439 97.5019 228.499 114.5 205.922 138.85C158.301 190.2 147.174 256.036 161.537 323.383C166.854 348.334 175.454 371.296 185.594 394.737C194.487 415.295 222.674 461.883 236.02 477.649L226.727 456.196L210.16 423.001V422.955ZM832.34 286.936C756.902 211.544 666.438 154.076 564.894 120.249C526.551 107.473 487.946 99.4899 447.646 96.084C401.258 92.1696 356.165 96.7313 312.213 111.341C222.335 141.208 169.397 217.277 175.253 312.333C177.565 324.847 179.553 335.774 180.601 348.503C152.969 264.944 174.452 175.236 251.354 125.581C310.795 87.2072 387.388 78.2071 456.692 86.7603C503.712 92.5549 555.386 106.656 599.076 124.317C706.014 167.546 800.762 234.615 876.739 321.395C912 361.664 942.083 405.756 963.874 454.532C996.777 528.166 1011.85 610.046 965.893 681.369C952.378 702.359 935.425 718.818 914.281 731.871C884.43 747.421 852.945 758.671 818.87 761.06C839.521 755.959 859.402 750.981 878.635 740.424C929.184 717.061 964.599 671.567 974.816 616.488C987.669 547.245 964.691 475.429 930.879 415.357C903.832 367.305 871.469 326.049 832.309 286.905L832.34 286.936ZM890.671 420.18C861.621 370.387 825.513 327.621 783.286 287.999C721.657 230.161 650.026 185.345 570.596 156.033C513.621 135.013 454.504 124.394 393.784 128.108C353.314 130.59 315.726 139.867 280.496 159.516C245.266 179.166 216.817 204.918 201.021 240.394L188.615 268.242C204.581 180.445 278.323 132.054 361.929 119.355C412.755 111.634 462.656 116.643 512.419 129.048C596.903 150.116 674.098 189.923 743.448 242.028C816.605 296.999 885.524 373.531 924.576 456.982C949.711 510.675 965.092 571.61 949.835 630.234C939.016 671.768 912.509 706.566 875.306 727.987C847.011 744.292 816.189 754.679 783.24 758.101C825.913 745.926 863.748 731.917 895.325 698.799C913.511 679.72 926.533 657.62 933.052 631.714C951.345 558.989 927.488 483.274 890.64 420.134L890.671 420.18ZM726.188 279.369C625.676 198.799 493.402 141.917 362.653 156.973C343.852 159.131 326.545 164.17 308.637 169.195C301.178 171.29 295.199 177.732 286.491 176.253C378.311 130.081 492.061 149.545 583.141 188.119C684.1 230.87 775.95 302.825 840.662 391.069C871.792 433.527 895.803 479.652 909.504 530.386C918.38 563.273 920.23 596.654 911.939 629.294C905.62 654.153 895.479 677.778 875.784 694.9C893.985 666.327 905.45 637.693 907.084 604.128C908.718 570.562 903.139 536.565 891.565 503.57C861.39 417.53 797.064 336.19 726.203 279.384L726.188 279.369Z" fill="#FAFAF7"/>
</svg>
