<svg width="3096" height="990" viewBox="0 0 3096 990" fill="none" xmlns="http://www.w3.org/2000/svg">
<path d="M1990.58 495.395C1990.58 553.097 1978.62 605.427 1954.72 652.384C1930.81 698.943 1896.94 735.952 1853.11 763.41C1809.68 790.47 1758.08 804 1698.31 804C1638.94 804 1587.54 790.47 1544.11 763.41C1500.68 736.35 1467.21 699.54 1443.7 652.981C1420.19 606.421 1408.43 553.893 1408.43 495.395C1408.43 437.296 1420.19 384.767 1443.7 337.81C1467.6 290.853 1501.47 253.645 1545.3 226.187C1589.53 198.729 1641.73 185 1701.9 185C1762.86 185 1814.86 198.928 1857.89 226.784C1900.93 254.64 1933.8 292.047 1956.51 339.004C1979.22 385.961 1990.58 438.092 1990.58 495.395ZM1863.27 494.202C1863.27 449.632 1857.29 408.047 1845.34 369.446C1833.79 330.846 1815.86 299.608 1791.55 275.731C1767.64 251.854 1737.36 239.916 1700.7 239.916C1662.85 239.916 1631.77 251.854 1607.46 275.731C1583.56 299.608 1565.82 330.846 1554.27 369.446C1542.71 408.047 1536.94 449.632 1536.94 494.202C1536.94 538.373 1542.71 579.958 1554.27 618.957C1566.22 657.557 1584.15 688.796 1608.06 712.672C1632.37 736.549 1662.85 748.487 1699.51 748.487C1736.96 748.487 1767.64 736.549 1791.55 712.672C1815.86 688.796 1833.79 657.557 1845.34 618.957C1857.29 580.356 1863.27 538.771 1863.27 494.202Z" fill="#191919"/>
<path d="M2606.96 789.077H2336.8V741.324L2388.21 737.743C2395.38 736.947 2401.35 734.161 2406.14 729.386C2411.32 724.61 2413.91 718.442 2413.91 710.881V392.726C2413.91 354.126 2404.94 324.877 2387.01 304.98C2369.08 284.685 2338.8 274.537 2296.16 274.537C2273.05 274.537 2249.94 277.92 2226.83 284.685C2204.12 291.052 2182.4 299.409 2161.68 309.755V710.881C2161.68 727.595 2170.25 736.549 2187.38 737.743L2238.78 741.324V789.077H1962.06V741.324L2021.83 737.743C2038.96 736.549 2047.53 727.595 2047.53 710.881V286.475H1962.06V246.482L2111.48 199.923H2161.68V260.808C2195.95 241.309 2231.01 223.799 2266.88 208.28C2303.14 192.76 2335.41 185 2363.7 185C2417.09 185 2457.74 201.714 2485.63 235.141C2513.52 268.17 2527.47 314.331 2527.47 373.625V710.881C2527.47 718.442 2529.86 724.61 2534.64 729.386C2539.82 734.161 2545.99 736.947 2553.17 737.743L2606.96 741.324V789.077Z" fill="#191919"/>
<path d="M3095.43 728.192C3061.17 749.283 3024.11 767.19 2984.26 781.914C2944.82 796.638 2904.37 804 2862.93 804C2813.53 804 2767.11 793.057 2723.67 771.17C2680.64 748.885 2645.78 715.259 2619.08 670.291C2592.38 625.324 2579.03 568.816 2579.03 500.768C2579.03 437.097 2591.39 381.584 2616.09 334.229C2640.8 286.873 2674.86 250.263 2718.29 224.396C2761.73 198.132 2811.14 185 2866.52 185C2942.63 185 2999.8 208.678 3038.06 256.033C3076.31 302.99 3095.43 362.88 3095.43 435.704C3095.43 439.683 3095.43 445.056 3095.43 451.821C3095.43 458.188 3095.04 464.157 3094.24 469.728H2697.38C2697.38 500.768 2700.56 531.807 2706.94 562.847C2713.71 593.488 2724.87 621.344 2740.41 646.415C2755.95 671.485 2776.87 691.581 2803.17 706.703C2829.46 721.825 2862.34 729.386 2901.78 729.386C2936.85 729.386 2970.92 721.427 3003.99 705.509C3037.46 689.193 3067.94 671.883 3095.43 653.578V728.192ZM2972.91 414.812V387.951C2972.91 347.759 2963.15 313.933 2943.62 286.475C2924.5 259.017 2894.61 245.288 2853.97 245.288C2813.73 245.288 2779.46 260.41 2751.17 290.654C2722.88 320.897 2707.14 362.284 2703.95 414.812H2972.91Z" fill="#191919"/>
<path d="M537.494 782.175C641.011 827.7 767.922 858.83 880.501 839.875C983.155 822.599 1069.64 764.946 1094.39 659.271C1114.47 573.493 1088.54 481.273 1047.27 405.311C983.124 287.246 874.768 183.791 759.847 114.657C644.926 45.5225 507.181 -5.02605 372.102 0.398669C289.698 3.69665 205.938 26.536 146.544 85.6685C112.069 119.989 88.3818 171.231 83.1266 219.823C78.1642 265.64 84.3749 310.317 99.8478 354.007C168.243 547.14 354.009 701.467 537.51 782.191L537.494 782.175ZM751.956 818.053C583.05 796.2 415.7 707.108 292.472 593.004C222.536 528.246 159.366 444.979 125.985 355.471C102.961 293.734 96.3956 223.367 122.41 161.969C137.158 127.14 160.367 98.244 190.743 75.9133C275.581 13.5752 395.819 6.99464 495.977 26.8596C608.848 49.252 713.875 99.4615 806.712 166.515C907.085 239.025 999.537 339.922 1048.42 454.627C1072.45 511.001 1083.99 570.103 1075.64 630.869C1067.38 690.957 1034.57 742.353 983.987 775.379C917.626 818.715 830.861 828.255 751.972 818.053H751.956Z" fill="#191919"/>
<path d="M1103.27 661.228C1086.68 755.313 1024.9 818.622 934.021 848.69C821.751 885.846 685.146 860.263 576.251 818.915C452.515 771.942 340.336 699.91 245.157 607.813C209.002 572.83 177.255 534.456 148.837 493.031C100.384 422.402 61.7024 335.19 65.8326 248.071C68.2213 197.769 83.987 159.241 111.403 116.938C45.8289 171.308 31.404 262.511 47.1543 342.002C53.4728 373.841 62.9815 403.23 76.528 432.958C100.338 485.202 130.914 532.992 167.747 577.238C255.452 682.573 367.83 765.13 491.073 824.124C614.317 883.118 769.307 920.691 900.471 889.128C985.788 868.601 1061.47 816.095 1090.83 730.856C1098.18 708.71 1104.61 686.564 1103.25 661.244L1103.27 661.228Z" fill="#191919"/>
<path d="M883.297 963.502C923.15 947.074 960.877 926.022 988.309 893.967C954.265 917.839 920.931 934.807 882.403 944.993C751.747 979.53 595.123 942.589 474.731 886.57C422.102 862.082 372.617 834.018 325.181 800.591C205.128 715.984 89.4825 597.996 36.7762 458.756C20.2092 414.973 11.7793 370.404 11.5327 323.739C11.4249 302.641 15.4627 283.747 19.0226 263.004C-2.52219 310.486 -3.66265 380.915 5.21419 431.617C32.0605 584.881 147.151 721.146 266.988 813.983C343.443 873.224 436.403 924.913 528.424 954.672C620.444 984.431 713.851 999.426 808.491 983.598C834.459 979.252 858.362 973.781 883.297 963.502Z" fill="#191919"/>
<path d="M1045.09 830.737C1053.55 816.158 1061.75 802.95 1066.99 787.061C1043.75 824.541 1013.3 854.408 974.29 874.982C947.752 888.991 920.228 899.27 890.577 905.219C864.578 910.428 839.673 914.481 812.781 914.851C739.716 915.852 668.717 903.092 599.459 880.854C418.686 822.8 238.422 697.6 127.985 543.165C94.8819 496.87 68.8679 447.847 50.7135 394.031C28.1978 324.45 25.7782 258.69 53.4104 189.078C36.1345 211.825 26.9956 237.793 20.4151 264.916C18.3654 282.732 14.713 299.345 15.0828 317.561C15.9613 360.774 23.5436 402.692 38.477 443.562C73.1522 538.464 134.936 621.869 207.368 691.913C307.34 788.587 426.762 862.268 558.127 907.993C689.491 953.718 871.975 973.768 992.614 885.446C1013.28 870.312 1029.39 851.773 1045.07 830.752L1045.09 830.737Z" fill="#191919"/>
<path d="M552.552 745.664C671.079 797.831 835.825 835.526 954.768 769.12C999.137 744.354 1031.99 705.626 1047.99 657.312C1086.75 540.264 1020.28 405.817 947.124 315.631C855.536 202.745 729.688 114.516 592.76 66.0323C506.349 35.4412 418.968 22.0797 328.211 37.46C262.313 48.6177 195.29 81.7054 157.563 138.234C118.912 196.133 115.891 270.785 136.758 335.882C176.519 459.926 276.769 570.763 381.01 646.277C434.995 685.391 491.662 718.864 552.567 745.664H552.552ZM210.162 422.955C199.898 402.381 189.141 382.701 184.733 360.385C182.267 347.918 184.625 333.477 184.564 320.64C184.44 293.223 194.072 269.059 209.992 247.93C219.609 235.17 229.456 224.844 243.018 215.906C341.218 151.179 476.051 175.991 576.763 223.904C661.971 264.435 737.394 321.534 796.11 395.862C836.919 447.52 871.193 513.634 880.502 579.501C888.238 634.272 873.243 695.485 826.763 729.189C807.853 742.905 785.045 751.721 761.728 755.974C721.921 763.217 688.802 758.008 649.565 748.916C594.27 736.094 542.488 715.212 492.279 688.889C441.977 662.521 396.745 631.483 353.008 595.436C314.372 563.597 280.252 537.845 248.458 498.007L248.274 497.837L221.504 461.945L211.379 445.84C194.103 418.408 177.398 391.346 165.238 361.202C151.291 326.604 142.676 291.852 143.678 254.279C146.19 160.564 203.766 96.7467 290.238 67.82C434.394 19.5985 611.561 79.4246 735.298 157.636C825.099 214.411 904.435 286.581 963.321 375.134C989.767 414.894 1010.42 456.998 1023.78 502.646C1049.84 591.66 1036.79 685.884 957.404 742.659C890.257 790.68 785.6 793.146 707.295 776.486C680.403 769.736 654.065 766.007 629.222 754.818C732.107 783.93 882.397 797.723 963.938 715.35C990.599 688.412 1007.55 656.218 1013.75 618.537C1020.87 575.232 1016.12 531.634 1002.62 489.931C985.498 437.071 956.34 384.026 922.405 340.289C876.911 281.665 823.188 230.531 762.468 187.981C681.112 130.975 588.783 88.887 490.799 71.0872C425.595 59.2514 349.463 60.4072 287.557 85.0959C256.441 97.5019 228.501 114.5 205.924 138.85C158.303 190.2 147.176 256.036 161.539 323.383C166.856 348.334 175.456 371.296 185.596 394.737C194.488 415.295 222.676 461.883 236.022 477.649L226.729 456.196L210.162 423.001V422.955ZM832.342 286.936C756.904 211.544 666.44 154.076 564.896 120.249C526.553 107.473 487.948 99.4899 447.648 96.084C401.26 92.1696 356.167 96.7313 312.215 111.341C222.337 141.208 169.399 217.277 175.255 312.333C177.567 324.847 179.555 335.774 180.603 348.503C152.971 264.944 174.454 175.236 251.356 125.581C310.797 87.2072 387.39 78.2071 456.694 86.7603C503.714 92.5549 555.387 106.656 599.078 124.317C706.016 167.546 800.764 234.615 876.741 321.395C912.002 361.664 942.085 405.756 963.876 454.532C996.779 528.166 1011.85 610.046 965.895 681.369C952.379 702.359 935.427 718.818 914.283 731.871C884.432 747.421 852.947 758.671 818.872 761.06C839.523 755.959 859.404 750.981 878.637 740.424C929.186 717.061 964.601 671.567 974.818 616.488C987.671 547.245 964.693 475.429 930.881 415.357C903.834 367.305 871.471 326.049 832.311 286.905L832.342 286.936ZM890.673 420.18C861.623 370.387 825.515 327.621 783.288 287.999C721.659 230.161 650.028 185.345 570.598 156.033C513.623 135.013 454.506 124.394 393.786 128.108C353.316 130.59 315.728 139.867 280.498 159.516C245.268 179.166 216.819 204.918 201.023 240.394L188.617 268.242C204.583 180.445 278.325 132.054 361.931 119.355C412.757 111.634 462.658 116.643 512.421 129.048C596.905 150.116 674.1 189.923 743.45 242.028C816.607 296.999 885.526 373.531 924.578 456.982C949.713 510.675 965.094 571.61 949.837 630.234C939.018 671.768 912.511 706.566 875.308 727.987C847.013 744.292 816.191 754.679 783.242 758.101C825.915 745.926 863.75 731.917 895.327 698.799C913.512 679.72 926.535 657.62 933.054 631.714C951.347 558.989 927.49 483.274 890.642 420.134L890.673 420.18ZM726.19 279.369C625.678 198.799 493.404 141.917 362.655 156.973C343.854 159.131 326.547 164.17 308.639 169.195C301.18 171.29 295.201 177.732 286.493 176.253C378.313 130.081 492.063 149.545 583.143 188.119C684.102 230.87 775.952 302.825 840.664 391.069C871.794 433.527 895.805 479.652 909.506 530.386C918.382 563.273 920.232 596.654 911.941 629.294C905.622 654.153 895.481 677.778 875.786 694.9C893.987 666.327 905.452 637.693 907.086 604.128C908.72 570.562 903.141 536.565 891.567 503.57C861.392 417.53 797.066 336.19 726.205 279.384L726.19 279.369Z" fill="#191919"/>
</svg>
